<svg height="600" width="650">
<polygon points="0,560,40,560,40,600,0,600" style="              stroke_width:1;stroke:black"/>
<text x="2" y="595" fill="red">1</text>
<polygon points="40,560,80,560,80,600,40,600" style="              stroke_width:1;stroke:black"/>
<text x="42" y="595" fill="red">2</text>
<polygon points="80,560,120,560,120,600,80,600" style="              stroke_width:1;stroke:black"/>
<text x="82" y="595" fill="red">3</text>
<polygon points="120,560,160,560,160,600,120,600" style="              stroke_width:1;stroke:black"/>
<text x="122" y="595" fill="red">4</text>
<polygon points="160,560,200,560,200,600,160,600" style="              stroke_width:1;stroke:black"/>
<text x="162" y="595" fill="red">5</text>
<polygon points="200,560,240,560,240,600,200,600" style="              stroke_width:1;stroke:black"/>
<text x="202" y="595" fill="red">6</text>
<polygon points="240,560,280,560,280,600,240,600" style="              stroke_width:1;stroke:black"/>
<text x="242" y="595" fill="red">7</text>
<polygon points="280,560,320,560,320,600,280,600" style="              stroke_width:1;stroke:black"/>
<text x="282" y="595" fill="red">8</text>
<polygon points="320,560,360,560,360,600,320,600" style="              stroke_width:1;stroke:black"/>
<text x="322" y="595" fill="red">9</text>
<polygon points="360,560,400,560,400,600,360,600" style="              stroke_width:1;stroke:black"/>
<text x="362" y="595" fill="red">10</text>
<polygon points="400,560,440,560,440,600,400,600" style="              stroke_width:1;stroke:black"/>
<text x="402" y="595" fill="red">11</text>
<polygon points="440,560,480,560,480,600,440,600" style="              stroke_width:1;stroke:black"/>
<text x="442" y="595" fill="red">12</text>
<polygon points="480,560,520,560,520,600,480,600" style="              stroke_width:1;stroke:black"/>
<text x="482" y="595" fill="red">13</text>
<polygon points="520,560,560,560,560,600,520,600" style="              stroke_width:1;stroke:black"/>
<text x="522" y="595" fill="red">14</text>
<polygon points="560,560,600,560,600,600,560,600" style="              stroke_width:1;stroke:black"/>
<text x="562" y="595" fill="red">15</text>
<polygon points="600,560,640,560,640,600,600,600" style="              stroke_width:1;stroke:black"/>
<text x="602" y="595" fill="red">16</text>
<polygon points="600,520,640,520,640,560,600,560" style="              stroke_width:1;stroke:black"/>
<text x="602" y="555" fill="red">17</text>
<polygon points="600,480,640,480,640,520,600,520" style="              stroke_width:1;stroke:black"/>
<text x="602" y="515" fill="red">18</text>
<polygon points="600,480,640,480,640,520,600,520" style="              stroke_width:1;stroke:black"/>
<text x="602" y="515" fill="red">18</text>
<polygon points="560,480,600,480,600,520,560,520" style="              stroke_width:1;stroke:black"/>
<text x="562" y="515" fill="red">19</text>
<polygon points="520,480,560,480,560,520,520,520" style="              stroke_width:1;stroke:black"/>
<text x="522" y="515" fill="red">20</text>
<polygon points="480,480,520,480,520,520,480,520" style="              stroke_width:1;stroke:black"/>
<text x="482" y="515" fill="red">21</text>
<polygon points="440,480,480,480,480,520,440,520" style="              stroke_width:1;stroke:black"/>
<text x="442" y="515" fill="red">22</text>
<polygon points="400,480,440,480,440,520,400,520" style="              stroke_width:1;stroke:black"/>
<text x="402" y="515" fill="red">23</text>
<polygon points="360,480,400,480,400,520,360,520" style="              stroke_width:1;stroke:black"/>
<text x="362" y="515" fill="red">24</text>
<polygon points="320,480,360,480,360,520,320,520" style="              stroke_width:1;stroke:black"/>
<text x="322" y="515" fill="red">25</text>
<polygon points="280,480,320,480,320,520,280,520" style="              stroke_width:1;stroke:black"/>
<text x="282" y="515" fill="red">26</text>
<polygon points="240,480,280,480,280,520,240,520" style="              stroke_width:1;stroke:black"/>
<text x="242" y="515" fill="red">27</text>
<polygon points="200,480,240,480,240,520,200,520" style="              stroke_width:1;stroke:black"/>
<text x="202" y="515" fill="red">28</text>
<polygon points="160,480,200,480,200,520,160,520" style="              stroke_width:1;stroke:black"/>
<text x="162" y="515" fill="red">29</text>
<polygon points="120,480,160,480,160,520,120,520" style="              stroke_width:1;stroke:black"/>
<text x="122" y="515" fill="red">30</text>
<polygon points="80,480,120,480,120,520,80,520" style="              stroke_width:1;stroke:black"/>
<text x="82" y="515" fill="red">31</text>
<polygon points="40,480,80,480,80,520,40,520" style="              stroke_width:1;stroke:black"/>
<text x="42" y="515" fill="red">32</text>
<polygon points="0,480,40,480,40,520,0,520" style="              stroke_width:1;stroke:black"/>
<text x="2" y="515" fill="red">33</text>
<polygon points="0,440,40,440,40,480,0,480" style="              stroke_width:1;stroke:black"/>
<text x="2" y="475" fill="red">34</text>
<polygon points="0,400,40,400,40,440,0,440" style="              stroke_width:1;stroke:black"/>
<text x="2" y="435" fill="red">35</text>
<polygon points="0,400,40,400,40,440,0,440" style="              stroke_width:1;stroke:black"/>
<text x="2" y="435" fill="red">35</text>
<polygon points="40,400,80,400,80,440,40,440" style="              stroke_width:1;stroke:black"/>
<text x="42" y="435" fill="red">36</text>
<polygon points="80,400,120,400,120,440,80,440" style="              stroke_width:1;stroke:black"/>
<text x="82" y="435" fill="red">37</text>
<polygon points="120,400,160,400,160,440,120,440" style="              stroke_width:1;stroke:black"/>
<text x="122" y="435" fill="red">38</text>
<polygon points="160,400,200,400,200,440,160,440" style="              stroke_width:1;stroke:black"/>
<text x="162" y="435" fill="red">39</text>
<polygon points="200,400,240,400,240,440,200,440" style="              stroke_width:1;stroke:black"/>
<text x="202" y="435" fill="red">40</text>
<polygon points="240,400,280,400,280,440,240,440" style="              stroke_width:1;stroke:black"/>
<text x="242" y="435" fill="red">41</text>
<polygon points="280,400,320,400,320,440,280,440" style="              stroke_width:1;stroke:black"/>
<text x="282" y="435" fill="red">42</text>
<polygon points="320,400,360,400,360,440,320,440" style="              stroke_width:1;stroke:black"/>
<text x="322" y="435" fill="red">43</text>
<polygon points="360,400,400,400,400,440,360,440" style="              stroke_width:1;stroke:black"/>
<text x="362" y="435" fill="red">44</text>
<polygon points="400,400,440,400,440,440,400,440" style="              stroke_width:1;stroke:black"/>
<text x="402" y="435" fill="red">45</text>
<polygon points="440,400,480,400,480,440,440,440" style="              stroke_width:1;stroke:black"/>
<text x="442" y="435" fill="red">46</text>
<polygon points="480,400,520,400,520,440,480,440" style="              stroke_width:1;stroke:black"/>
<text x="482" y="435" fill="red">47</text>
<polygon points="520,400,560,400,560,440,520,440" style="              stroke_width:1;stroke:black"/>
<text x="522" y="435" fill="red">48</text>
<polygon points="560,400,600,400,600,440,560,440" style="              stroke_width:1;stroke:black"/>
<text x="562" y="435" fill="red">49</text>
<polygon points="600,400,640,400,640,440,600,440" style="              stroke_width:1;stroke:black"/>
<text x="602" y="435" fill="red">50</text>
<polygon points="600,360,640,360,640,400,600,400" style="              stroke_width:1;stroke:black"/>
<text x="602" y="395" fill="red">51</text>
<polygon points="600,320,640,320,640,360,600,360" style="              stroke_width:1;stroke:black"/>
<text x="602" y="355" fill="red">52</text>
<polygon points="600,320,640,320,640,360,600,360" style="              stroke_width:1;stroke:black"/>
<text x="602" y="355" fill="red">52</text>
<polygon points="560,320,600,320,600,360,560,360" style="              stroke_width:1;stroke:black"/>
<text x="562" y="355" fill="red">53</text>
<polygon points="520,320,560,320,560,360,520,360" style="              stroke_width:1;stroke:black"/>
<text x="522" y="355" fill="red">54</text>
<polygon points="480,320,520,320,520,360,480,360" style="              stroke_width:1;stroke:black"/>
<text x="482" y="355" fill="red">55</text>
<polygon points="440,320,480,320,480,360,440,360" style="              stroke_width:1;stroke:black"/>
<text x="442" y="355" fill="red">56</text>
<polygon points="400,320,440,320,440,360,400,360" style="              stroke_width:1;stroke:black"/>
<text x="402" y="355" fill="red">57</text>
<polygon points="360,320,400,320,400,360,360,360" style="              stroke_width:1;stroke:black"/>
<text x="362" y="355" fill="red">58</text>
<polygon points="320,320,360,320,360,360,320,360" style="              stroke_width:1;stroke:black"/>
<text x="322" y="355" fill="red">59</text>
<polygon points="280,320,320,320,320,360,280,360" style="              stroke_width:1;stroke:black"/>
<text x="282" y="355" fill="red">60</text>
<polygon points="240,320,280,320,280,360,240,360" style="              stroke_width:1;stroke:black"/>
<text x="242" y="355" fill="red">61</text>
<polygon points="200,320,240,320,240,360,200,360" style="              stroke_width:1;stroke:black"/>
<text x="202" y="355" fill="red">62</text>
<polygon points="160,320,200,320,200,360,160,360" style="              stroke_width:1;stroke:black"/>
<text x="162" y="355" fill="red">63</text>
<polygon points="120,320,160,320,160,360,120,360" style="              stroke_width:1;stroke:black"/>
<text x="122" y="355" fill="red">64</text>
<polygon points="80,320,120,320,120,360,80,360" style="              stroke_width:1;stroke:black"/>
<text x="82" y="355" fill="red">65</text>
<polygon points="40,320,80,320,80,360,40,360" style="              stroke_width:1;stroke:black"/>
<text x="42" y="355" fill="red">66</text>
<polygon points="0,320,40,320,40,360,0,360" style="              stroke_width:1;stroke:black"/>
<text x="2" y="355" fill="red">67</text>
<polygon points="0,280,40,280,40,320,0,320" style="              stroke_width:1;stroke:black"/>
<text x="2" y="315" fill="red">68</text>
<polygon points="0,240,40,240,40,280,0,280" style="              stroke_width:1;stroke:black"/>
<text x="2" y="275" fill="red">69</text>
<polygon points="0,240,40,240,40,280,0,280" style="              stroke_width:1;stroke:black"/>
<text x="2" y="275" fill="red">69</text>
<polygon points="40,240,80,240,80,280,40,280" style="              stroke_width:1;stroke:black"/>
<text x="42" y="275" fill="red">70</text>
<polygon points="80,240,120,240,120,280,80,280" style="              stroke_width:1;stroke:black"/>
<text x="82" y="275" fill="red">71</text>
<polygon points="120,240,160,240,160,280,120,280" style="              stroke_width:1;stroke:black"/>
<text x="122" y="275" fill="red">72</text>
<polygon points="160,240,200,240,200,280,160,280" style="              stroke_width:1;stroke:black"/>
<text x="162" y="275" fill="red">73</text>
<polygon points="200,240,240,240,240,280,200,280" style="              stroke_width:1;stroke:black"/>
<text x="202" y="275" fill="red">74</text>
<polygon points="240,240,280,240,280,280,240,280" style="              stroke_width:1;stroke:black"/>
<text x="242" y="275" fill="red">75</text>
<polygon points="280,240,320,240,320,280,280,280" style="              stroke_width:1;stroke:black"/>
<text x="282" y="275" fill="red">76</text>
<polygon points="320,240,360,240,360,280,320,280" style="              stroke_width:1;stroke:black"/>
<text x="322" y="275" fill="red">77</text>
<polygon points="360,240,400,240,400,280,360,280" style="              stroke_width:1;stroke:black"/>
<text x="362" y="275" fill="red">78</text>
<polygon points="400,240,440,240,440,280,400,280" style="              stroke_width:1;stroke:black"/>
<text x="402" y="275" fill="red">79</text>
<polygon points="440,240,480,240,480,280,440,280" style="              stroke_width:1;stroke:black"/>
<text x="442" y="275" fill="red">80</text>
<polygon points="480,240,520,240,520,280,480,280" style="              stroke_width:1;stroke:black"/>
<text x="482" y="275" fill="red">81</text>
<polygon points="520,240,560,240,560,280,520,280" style="              stroke_width:1;stroke:black"/>
<text x="522" y="275" fill="red">82</text>
<polygon points="560,240,600,240,600,280,560,280" style="              stroke_width:1;stroke:black"/>
<text x="562" y="275" fill="red">83</text>
<polygon points="600,240,640,240,640,280,600,280" style="              stroke_width:1;stroke:black"/>
<text x="602" y="275" fill="red">84</text>
<polygon points="600,200,640,200,640,240,600,240" style="              stroke_width:1;stroke:black"/>
<text x="602" y="235" fill="red">85</text>
<polygon points="600,160,640,160,640,200,600,200" style="              stroke_width:1;stroke:black"/>
<text x="602" y="195" fill="red">86</text>
<polygon points="600,160,640,160,640,200,600,200" style="              stroke_width:1;stroke:black"/>
<text x="602" y="195" fill="red">86</text>
<polygon points="560,160,600,160,600,200,560,200" style="              stroke_width:1;stroke:black"/>
<text x="562" y="195" fill="red">87</text>
<polygon points="520,160,560,160,560,200,520,200" style="              stroke_width:1;stroke:black"/>
<text x="522" y="195" fill="red">88</text>
<polygon points="480,160,520,160,520,200,480,200" style="              stroke_width:1;stroke:black"/>
<text x="482" y="195" fill="red">89</text>
<polygon points="440,160,480,160,480,200,440,200" style="              stroke_width:1;stroke:black"/>
<text x="442" y="195" fill="red">90</text>
<polygon points="400,160,440,160,440,200,400,200" style="              stroke_width:1;stroke:black"/>
<text x="402" y="195" fill="red">91</text>
<polygon points="360,160,400,160,400,200,360,200" style="              stroke_width:1;stroke:black"/>
<text x="362" y="195" fill="red">92</text>
<polygon points="320,160,360,160,360,200,320,200" style="              stroke_width:1;stroke:black"/>
<text x="322" y="195" fill="red">93</text>
<polygon points="280,160,320,160,320,200,280,200" style="              stroke_width:1;stroke:black"/>
<text x="282" y="195" fill="red">94</text>
<polygon points="240,160,280,160,280,200,240,200" style="              stroke_width:1;stroke:black"/>
<text x="242" y="195" fill="red">95</text>
<polygon points="200,160,240,160,240,200,200,200" style="              stroke_width:1;stroke:black"/>
<text x="202" y="195" fill="red">96</text>
<polygon points="160,160,200,160,200,200,160,200" style="              stroke_width:1;stroke:black"/>
<text x="162" y="195" fill="red">97</text>
<polygon points="120,160,160,160,160,200,120,200" style="              stroke_width:1;stroke:black"/>
<text x="122" y="195" fill="red">98</text>
<polygon points="80,160,120,160,120,200,80,200" style="              stroke_width:1;stroke:black"/>
<text x="82" y="195" fill="red">99</text>
<polygon points="40,160,80,160,80,200,40,200" style="              stroke_width:1;stroke:black"/>
<text x="42" y="195" fill="red">100</text>
<polygon points="0,160,40,160,40,200,0,200" style="              stroke_width:1;stroke:black"/>
<text x="2" y="195" fill="red">101</text>
<polygon points="0,120,40,120,40,160,0,160" style="              stroke_width:1;stroke:black"/>
<text x="2" y="155" fill="red">102</text>
<polygon points="0,80,40,80,40,120,0,120" style="              stroke_width:1;stroke:black"/>
<text x="2" y="115" fill="red">103</text>
<polygon points="0,80,40,80,40,120,0,120" style="              stroke_width:1;stroke:black"/>
<text x="2" y="115" fill="red">103</text>
<polygon points="40,80,80,80,80,120,40,120" style="              stroke_width:1;stroke:black"/>
<text x="42" y="115" fill="red">104</text>
<polygon points="80,80,120,80,120,120,80,120" style="              stroke_width:1;stroke:black"/>
<text x="82" y="115" fill="red">105</text>
<polygon points="120,80,160,80,160,120,120,120" style="              stroke_width:1;stroke:black"/>
<text x="122" y="115" fill="red">106</text>
<polygon points="160,80,200,80,200,120,160,120" style="              stroke_width:1;stroke:black"/>
<text x="162" y="115" fill="red">107</text>
<polygon points="200,80,240,80,240,120,200,120" style="              stroke_width:1;stroke:black"/>
<text x="202" y="115" fill="red">108</text>
<polygon points="240,80,280,80,280,120,240,120" style="              stroke_width:1;stroke:black"/>
<text x="242" y="115" fill="red">109</text>
<polygon points="280,80,320,80,320,120,280,120" style="              stroke_width:1;stroke:black"/>
<text x="282" y="115" fill="red">110</text>
<polygon points="320,80,360,80,360,120,320,120" style="              stroke_width:1;stroke:black"/>
<text x="322" y="115" fill="red">111</text>
<polygon points="360,80,400,80,400,120,360,120" style="              stroke_width:1;stroke:black"/>
<text x="362" y="115" fill="red">112</text>
<polygon points="400,80,440,80,440,120,400,120" style="              stroke_width:1;stroke:black"/>
<text x="402" y="115" fill="red">113</text>
<polygon points="440,80,480,80,480,120,440,120" style="              stroke_width:1;stroke:black"/>
<text x="442" y="115" fill="red">114</text>
<polygon points="480,80,520,80,520,120,480,120" style="              stroke_width:1;stroke:black"/>
<text x="482" y="115" fill="red">115</text>
<polygon points="520,80,560,80,560,120,520,120" style="              stroke_width:1;stroke:black"/>
<text x="522" y="115" fill="red">116</text>
<polygon points="560,80,600,80,600,120,560,120" style="              stroke_width:1;stroke:black"/>
<text x="562" y="115" fill="red">117</text>
<polygon points="600,80,640,80,640,120,600,120" style="              stroke_width:1;stroke:black"/>
<text x="602" y="115" fill="red">118</text>
<polygon points="600,40,640,40,640,80,600,80" style="              stroke_width:1;stroke:black"/>
<text x="602" y="75" fill="red">119</text>
<polygon points="600,0,640,0,640,40,600,40" style="              stroke_width:1;stroke:black"/>
<text x="602" y="35" fill="red">120</text>
<polygon points="600,0,640,0,640,40,600,40" style="              stroke_width:1;stroke:black"/>
<text x="602" y="35" fill="red">120</text>
<polygon points="560,0,600,0,600,40,560,40" style="              stroke_width:1;stroke:black"/>
<text x="562" y="35" fill="red">121</text>
<polygon points="520,0,560,0,560,40,520,40" style="              stroke_width:1;stroke:black"/>
<text x="522" y="35" fill="red">122</text>
<polygon points="480,0,520,0,520,40,480,40" style="              stroke_width:1;stroke:black"/>
<text x="482" y="35" fill="red">123</text>
<polygon points="440,0,480,0,480,40,440,40" style="              stroke_width:1;stroke:black"/>
<text x="442" y="35" fill="red">124</text>
<polygon points="400,0,440,0,440,40,400,40" style="              stroke_width:1;stroke:black"/>
<text x="402" y="35" fill="red">125</text>
<polygon points="360,0,400,0,400,40,360,40" style="              stroke_width:1;stroke:black"/>
<text x="362" y="35" fill="red">126</text>
<polygon points="320,0,360,0,360,40,320,40" style="              stroke_width:1;stroke:black"/>
<text x="322" y="35" fill="red">127</text>
<polygon points="280,0,320,0,320,40,280,40" style="              stroke_width:1;stroke:black"/>
<text x="282" y="35" fill="red">128</text>
<polygon points="240,0,280,0,280,40,240,40" style="              stroke_width:1;stroke:black"/>
<text x="242" y="35" fill="red">129</text>
<polygon points="200,0,240,0,240,40,200,40" style="              stroke_width:1;stroke:black"/>
<text x="202" y="35" fill="red">130</text>
<polygon points="160,0,200,0,200,40,160,40" style="              stroke_width:1;stroke:black"/>
<text x="162" y="35" fill="red">131</text>
<polygon points="120,0,160,0,160,40,120,40" style="              stroke_width:1;stroke:black"/>
<text x="122" y="35" fill="red">132</text>
<polygon points="80,0,120,0,120,40,80,40" style="              stroke_width:1;stroke:black"/>
<text x="82" y="35" fill="red">133</text>
<polygon points="40,0,80,0,80,40,40,40" style="              stroke_width:1;stroke:black"/>
<text x="42" y="35" fill="red">134</text>
<polygon points="0,0,40,0,40,40,0,40" style="              stroke_width:1;stroke:black"/>
<text x="2" y="35" fill="red">135</text>
</svg>
