<svg height="600.0" width="800.0">
<polygon points="457.0,301.0 524.0,311.0 548.0,354.0" style="fill:rgb(117,238,67);" />
<polygon points="439.59797974644664,341.01219330881975 479.9030662740799,395.4594154601839 466.4680374315355,442.8355697996826" style="fill:rgb(117,238,67);" />
<polygon points="399.0,357.0 389.0,424.0 346.0,448.0" style="fill:rgb(117,238,67);" />
<polygon points="358.98780669118025,339.59797974644664 304.5405845398161,379.9030662740799 257.1644302003174,366.4680374315355" style="fill:rgb(117,238,67);" />
<polygon points="343.0,299.0 276.0,289.0 252.0,246.00000000000003" style="fill:rgb(117,238,67);" />
<polygon points="360.40202025355336,258.98780669118025 320.0969337259201,204.54058453981608 333.5319625684645,157.16443020031738" style="fill:rgb(117,238,67);" />
<polygon points="401.0,243.0 411.0,176.0 454.0,152.0" style="fill:rgb(117,238,67);" />
<polygon points="441.01219330881975,260.40202025355336 495.4594154601839,220.0969337259201 542.8355697996826,233.5319625684645" style="fill:rgb(117,238,67);" />
<polygon points="737.0,439.0 508.0,406.0 706.0,342.0" style="fill:rgb(130,199,27);" />
<polygon points="540.0071426749364,636.5828278447966 401.4142135623731,451.32085117392114 586.6761902332486,546.0731598529185" style="fill:rgb(130,199,27);" />
<polygon points="261.0,637.0 294.0,408.0 358.0,606.0" style="fill:rgb(130,199,27);" />
<polygon points="63.41717215520339,440.0071426749364 248.67914882607883,301.4142135623731 153.92684014708146,486.6761902332486" style="fill:rgb(130,199,27);" />
<polygon points="63.0,161.00000000000003 292.0,194.0 94.0,258.00000000000006" style="fill:rgb(130,199,27);" />
<polygon points="259.99285732506354,-36.58282784479661 398.5857864376269,148.6791488260788 213.32380976675142,53.926840147081464" style="fill:rgb(130,199,27);" />
<polygon points="539.0,-37.0 506.0,192.0 441.99999999999994,-6.0" style="fill:rgb(130,199,27);" />
<polygon points="736.5828278447966,159.9928573250635 551.3208511739211,298.5857864376269 646.0731598529185,113.3238097667514" style="fill:rgb(130,199,27);" />
<polygon points="796.0,443.0 455.0,580.0 406.0,591.0" style="fill:rgb(198,66,29);" />
<polygon points="578.8980156401966,681.1305550595491 240.90097423302683,536.8807716974934 198.47456736183398,510.0107140124046" style="fill:rgb(198,66,29);" />
<polygon points="257.0,696.0 120.0,355.0 109.0,306.0" style="fill:rgb(198,66,29);" />
<polygon points="18.869444940450876,478.8980156401966 163.11922830250657,140.90097423302683 189.98928598759537,98.47456736183398" style="fill:rgb(198,66,29);" />
<polygon points="4.0,157.00000000000006 344.99999999999994,20.0 393.99999999999994,9.0" style="fill:rgb(198,66,29);" />
<polygon points="221.10198435980342,-81.13055505954912 559.0990257669732,63.11922830250654 601.525432638166,89.98928598759534" style="fill:rgb(198,66,29);" />
<polygon points="542.9999999999999,-96.0 680.0,244.99999999999994 691.0,293.99999999999994" style="fill:rgb(198,66,29);" />
<polygon points="781.1305550595491,121.1019843598034 636.8807716974934,459.0990257669731 610.0107140124046,501.52543263816597" style="fill:rgb(198,66,29);" />
<polygon points="729.0,403.0 445.0,600.0 789.0,369.0" style="fill:rgb(47,112,95);" />
<polygon points="559.8061325481598,605.4701294725885 219.6877707974304,543.9518395093589 626.2741699796952,623.8549057834387" style="fill:rgb(47,112,95);" />
<polygon points="297.0,629.0 100.0,345.0 331.0,689.0" style="fill:rgb(47,112,95);" />
<polygon points="94.5298705274115,459.8061325481598 156.0481604906411,119.6877707974304 76.14509421656129,526.2741699796952" style="fill:rgb(47,112,95);" />
<polygon points="71.0,197.00000000000006 354.99999999999994,0.0 11.0,231.00000000000006" style="fill:rgb(47,112,95);" />
<polygon points="240.1938674518402,-5.470129472588496 580.3122292025696,56.04816049064107 173.72583002030473,-23.85490578343871" style="fill:rgb(47,112,95);" />
<polygon points="502.99999999999994,-29.0 700.0,254.99999999999994 468.99999999999994,-89.0" style="fill:rgb(47,112,95);" />
<polygon points="705.4701294725885,140.19386745184016 643.9518395093589,480.3122292025696 723.8549057834387,73.72583002030473" style="fill:rgb(47,112,95);" />
<polygon points="696.0,517.0 418.0,559.0 499.0,560.0" style="fill:rgb(238,220,138);" />
<polygon points="455.86143571373725,662.7457787486989 229.58726573404206,495.86857838867365 286.1558082289659,553.8513344459706" style="fill:rgb(238,220,138);" />
<polygon points="183.00000000000003,596.0 141.0,318.0 140.0,399.0" style="fill:rgb(238,220,138);" />
<polygon points="37.254221251301146,355.86143571373725 204.13142161132635,129.58726573404206 146.14866555402944,186.1558082289659" style="fill:rgb(238,220,138);" />
<polygon points="104.0,83.00000000000003 381.99999999999994,41.0 301.0,40.0" style="fill:rgb(238,220,138);" />
<polygon points="344.1385642862627,-62.74577874869891 570.4127342659579,104.13142161132632 513.8441917710342,46.14866555402941" style="fill:rgb(238,220,138);" />
<polygon points="617.0,3.999999999999943 659.0,281.99999999999994 660.0,200.99999999999994" style="fill:rgb(238,220,138);" />
<polygon points="762.7457787486989,244.13856428626266 595.8685783886737,470.4127342659579 653.8513344459706,413.8441917710341" style="fill:rgb(238,220,138);" />
</svg>
